<svg xmlns="http://www.w3.org/2000/svg" viewBox="0 0 207.03 242"><defs><style>.cls-1{fill:#fff;}</style></defs><g id="Capa_2" data-name="Capa 2"><g id="Capa_1-2" data-name="Capa 1"><path id="bag" class="cls-1" d="M176.59,47.15H154.81a51.48,51.48,0,0,0-102.59,0H30.45A30.44,30.44,0,0,0,0,77.59v134A30.45,30.45,0,0,0,30.45,242H176.59A30.44,30.44,0,0,0,207,211.55v-134A30.44,30.44,0,0,0,176.59,47.15Zm-73.07-35a39.48,39.48,0,0,1,39.11,35H64.4A39.49,39.49,0,0,1,103.52,12.14Zm91.33,199.41a18.27,18.27,0,0,1-18.26,18.27H30.45a18.27,18.27,0,0,1-18.27-18.27h0v-134A18.26,18.26,0,0,1,30.45,59.33H176.59a18.26,18.26,0,0,1,18.26,18.26Z"/></g></g></svg>